<?xml version="1.0" encoding="UTF-8"?>
<svg id="Capa_1" data-name="Capa 1" xmlns="http://www.w3.org/2000/svg" viewBox="0 0 707.26 1650.64">
  <defs>
    <style>
      .cls-1 {
        fill: #00b78f;
      }

      .cls-2 {
        fill: #fff;
      }
    </style>
  </defs>
  <path class="cls-1" d="M706.01,808.97c0,18.36-14.88,33.24-33.24,33.24H0V32.58c0-7.74,3.14-14.74,8.21-19.81,6.38-6.38,15.23-7.71,19.81-8.21,146.01-15.89,188.88,14.81,188.88,14.81,9.59,6.86,53.12,39.63,65.36,96,14.58,67.1-34.39,94.59-20.43,138.89,24.67,78.28,157.99,65.19,269.62,138.89,63,41.6,135.14,121.45,174.56,289.41,2.81,59.4,0,104.75,0,126.41Z"/>
  <path class="cls-1" d="M706.05,944.51c-2.68,24.83-10.47,60.09-35.7,90.01-55.34,65.63-146.3,48.4-157.28,87.83-10.62,38.17,74.08,60.35,87.83,134.81,12.78,69.19-37.03,152.74-101.64,186.58-62.63,32.8-92.95-5.33-163.9,27.89-65.75,30.79-67.32,76.48-128.68,122.55-38.54,28.94-101.43,58.61-206.65,56.34V862.87c0-27.61,22.39-50,50-50H706.05v131.64Z"/>
  <g>
    <path class="cls-2" d="M193.45,512.06c-23.55,6.95-50.13-12.83-59.38-44.19l85.26-25.16c9.25,31.35-2.33,62.4-25.88,69.35Z"/>
    <path class="cls-2" d="M116.15,250.13c-23.55,6.95-50.13-12.83-59.38-44.19l85.26-25.16c9.25,31.35-2.33,62.4-25.88,69.35Z"/>
    <path class="cls-2" d="M141.92,337.44c-23.55,6.95-50.13-12.83-59.38-44.19l85.26-25.16c9.25,31.35-2.33,62.4-25.88,69.35Z"/>
    <path class="cls-2" d="M219.21,599.37c-23.55,6.95-50.13-12.83-59.38-44.19l85.26-25.16c9.25,31.35-2.33,62.4-25.88,69.35Z"/>
    <path class="cls-2" d="M167.68,424.75c-23.55,6.95-50.13-12.83-59.38-44.19l85.26-25.16c9.25,31.35-2.33,62.4-25.88,69.35Z"/>
  </g>
  <circle class="cls-2" cx="353.63" cy="421.11" r="35.84" transform="translate(-191.29 347.27) rotate(-42.26)"/>
  <circle class="cls-2" cx="152.52" cy="96.34" r="35.84" transform="translate(-25.15 127.61) rotate(-42.26)"/>
</svg>