<?xml version="1.0" encoding="UTF-8"?>
<svg id="Capa_1" data-name="Capa 1" xmlns="http://www.w3.org/2000/svg" viewBox="0 0 974.94 1407.12">
  <defs>
    <style>
      .cls-1 {
        fill: #00b78f;
      }

      .cls-2 {
        stroke-width: 9px;
      }

      .cls-2, .cls-3 {
        fill: none;
        stroke: #00b78f;
        stroke-miterlimit: 10;
      }

      .cls-3 {
        stroke-width: 10px;
      }

      .cls-4 {
        fill: #191919;
      }
    </style>
  </defs>
  <path class="cls-4" d="M9.89,64.33C-11.73,40.13,4.3,1.12,36.74,.03c.52-.02,1.04-.03,1.56-.03H974.94V1104.03c0,21.52-17.46,38.97-38.98,38.97-218.75,0-211.87-64.2-174.06-113.69,37.27-48.79,31.41-117.73-13.79-159.3-45.86-42.17-97.44-74.29-120.51-119.63-49.84-97.99-361.19,44.91-494.3-81.7-51.57-49.05-90.78-152.26-27.7-393.39,13.1-50.08,.37-103.4-34.12-142.01-20.53-22.98-41.07-45.97-61.6-68.95Z"/>
  <g>
    <polygon class="cls-2" points="895.71 666.84 937.96 717.39 877.4 725.07 895.71 666.84"/>
    <polygon class="cls-2" points="832.8 719.42 875.04 769.97 814.48 777.66 832.8 719.42"/>
    <polygon class="cls-2" points="769.88 772.01 812.12 822.55 751.56 830.24 769.88 772.01"/>
  </g>
  <rect class="cls-3" x="228.8" y="766.98" width="37.02" height="37.02" transform="translate(627.86 55.19) rotate(45)"/>
  <g>
    <path class="cls-4" d="M884,1073.88l-28.41,28.41c-26.84-24.58-68.42-23.96-94.32,1.93-25.88,25.88-26.51,67.47-1.93,94.32l-28.41,28.41c-40.31-42.6-39.71-109.67,1.85-151.23s108.63-42.16,151.23-1.85Z"/>
    <path class="cls-1" d="M814.41,1048.69c-60.01,0-108.7,48.66-108.7,108.7s48.68,108.7,108.7,108.7,108.7-48.68,108.7-108.7-48.66-108.7-108.7-108.7Zm0,177.09c-37.76,0-68.39-30.63-68.39-68.39s30.63-68.39,68.39-68.39,68.39,30.6,68.39,68.39-30.6,68.39-68.39,68.39Z"/>
  </g>
  <g>
    <path class="cls-4" d="M907,1327.95l-11.7,11.7c-11.06-10.13-28.18-9.87-38.85,.8-10.66,10.66-10.92,27.79-.8,38.85l-11.7,11.7c-16.6-17.55-16.36-45.18,.76-62.29,17.12-17.12,44.75-17.36,62.29-.76Z"/>
    <path class="cls-1" d="M878.34,1317.58c-24.72,0-44.77,20.04-44.77,44.77s20.05,44.77,44.77,44.77,44.77-20.05,44.77-44.77-20.04-44.77-44.77-44.77Zm0,72.94c-15.55,0-28.17-12.62-28.17-28.17s12.62-28.17,28.17-28.17,28.17,12.61,28.17,28.17-12.61,28.17-28.17,28.17Z"/>
  </g>
  <polygon class="cls-1" points="937.96 516.87 923.23 531.6 901.85 510.22 880.47 531.6 865.74 516.87 887.12 495.49 865.74 474.11 880.47 459.39 901.85 480.77 923.23 459.39 937.96 474.11 916.58 495.49 937.96 516.87"/>
</svg>