<?xml version="1.0" encoding="UTF-8"?>
<svg id="Capa_1" data-name="Capa 1" xmlns="http://www.w3.org/2000/svg" viewBox="0 0 974.94 1241.57">
  <defs>
    <style>
      .cls-1 {
        fill: #00b78f;
      }

      .cls-2 {
        opacity: 0;
      }

      .cls-3 {
        stroke-width: 10px;
      }

      .cls-3, .cls-4 {
        fill: none;
        stroke: #00b78f;
        stroke-miterlimit: 10;
      }

      .cls-4 {
        stroke-width: 19px;
      }

      .cls-5 {
        fill: #191919;
      }
    </style>
  </defs>
  <path class="cls-5" d="M9.89,64.33C-11.73,40.13,4.3,1.12,36.74,.03c.52-.02,1.04-.03,1.56-.03H974.94V1104.03c0,21.52-17.46,38.97-38.98,38.97-218.75,0-211.87-64.2-174.06-113.69,37.27-48.79,31.41-117.73-13.79-159.3-45.86-42.17-97.44-74.29-120.51-119.63-49.84-97.99-361.19,44.91-494.3-81.7-51.57-49.05-90.78-152.26-27.7-393.39,13.1-50.08,.37-103.4-34.12-142.01-20.53-22.98-41.07-45.97-61.6-68.95Z"/>
  <g class="cls-2">
    <circle class="cls-1" cx="878.67" cy="831.54" r="14.57"/>
    <circle class="cls-1" cx="735.13" cy="831.54" r="14.57"/>
    <circle class="cls-1" cx="591.59" cy="831.54" r="14.57"/>
    <circle class="cls-1" cx="878.67" cy="660.31" r="14.57"/>
    <circle class="cls-1" cx="735.13" cy="660.31" r="14.57"/>
    <circle class="cls-1" cx="591.59" cy="660.31" r="14.57"/>
    <circle class="cls-1" cx="448.05" cy="660.31" r="14.57"/>
    <path class="cls-1" d="M289.95,660.31c0-8.04,6.52-14.57,14.57-14.57s14.57,6.52,14.57,14.57-6.52,14.57-14.57,14.57-14.57-6.52-14.57-14.57Z"/>
    <circle class="cls-1" cx="878.67" cy="489.09" r="14.57"/>
    <circle class="cls-1" cx="735.13" cy="489.09" r="14.57"/>
    <circle class="cls-1" cx="591.59" cy="489.09" r="14.57"/>
    <circle class="cls-1" cx="448.05" cy="489.09" r="14.57"/>
    <path class="cls-1" d="M289.95,489.09c0-8.04,6.52-14.57,14.57-14.57s14.57,6.52,14.57,14.57-6.52,14.57-14.57,14.57-14.57-6.52-14.57-14.57Z"/>
    <circle class="cls-1" cx="160.98" cy="489.09" r="14.57"/>
    <circle class="cls-1" cx="878.67" cy="317.86" r="14.57"/>
    <circle class="cls-1" cx="735.13" cy="317.86" r="14.57"/>
    <circle class="cls-1" cx="591.59" cy="317.86" r="14.57"/>
    <circle class="cls-1" cx="448.05" cy="317.86" r="14.57"/>
    <path class="cls-1" d="M289.95,317.86c0-8.04,6.52-14.57,14.57-14.57s14.57,6.52,14.57,14.57-6.52,14.57-14.57,14.57-14.57-6.52-14.57-14.57Z"/>
    <circle class="cls-1" cx="160.98" cy="317.86" r="14.57"/>
    <circle class="cls-1" cx="806.9" cy="831.54" r="14.57"/>
    <circle class="cls-1" cx="663.36" cy="831.54" r="14.57"/>
    <circle class="cls-1" cx="519.82" cy="831.54" r="14.57"/>
    <circle class="cls-1" cx="806.9" cy="660.31" r="14.57"/>
    <circle class="cls-1" cx="663.36" cy="660.31" r="14.57"/>
    <circle class="cls-1" cx="519.82" cy="660.31" r="14.57"/>
    <circle class="cls-1" cx="376.28" cy="660.31" r="14.57"/>
    <circle class="cls-1" cx="232.74" cy="660.31" r="14.57"/>
    <circle class="cls-1" cx="806.9" cy="489.09" r="14.57"/>
    <circle class="cls-1" cx="663.36" cy="489.09" r="14.57"/>
    <circle class="cls-1" cx="519.82" cy="489.09" r="14.57"/>
    <circle class="cls-1" cx="376.28" cy="489.09" r="14.57"/>
    <circle class="cls-1" cx="232.74" cy="489.09" r="14.57"/>
    <circle class="cls-1" cx="89.21" cy="489.09" r="14.57"/>
    <circle class="cls-1" cx="806.9" cy="317.86" r="14.57"/>
    <circle class="cls-1" cx="663.36" cy="317.86" r="14.57"/>
    <circle class="cls-1" cx="519.82" cy="317.86" r="14.57"/>
    <circle class="cls-1" cx="376.28" cy="317.86" r="14.57"/>
    <circle class="cls-1" cx="232.74" cy="317.86" r="14.57"/>
    <circle class="cls-1" cx="89.21" cy="317.86" r="14.57"/>
    <path class="cls-1" d="M864.1,917.15c0-8.04,6.52-14.57,14.57-14.57s14.57,6.52,14.57,14.57-6.52,14.57-14.57,14.57-14.57-6.52-14.57-14.57Z"/>
    <path class="cls-1" d="M720.56,917.15c0-8.04,6.52-14.57,14.57-14.57s14.57,6.52,14.57,14.57-6.52,14.57-14.57,14.57-14.57-6.52-14.57-14.57Z"/>
    <path class="cls-1" d="M577.03,917.15c0-8.04,6.52-14.57,14.57-14.57s14.57,6.52,14.57,14.57-6.52,14.57-14.57,14.57-14.57-6.52-14.57-14.57Z"/>
    <circle class="cls-1" cx="878.67" cy="745.92" r="14.57"/>
    <circle class="cls-1" cx="735.13" cy="745.92" r="14.57"/>
    <circle class="cls-1" cx="591.59" cy="745.92" r="14.57"/>
    <circle class="cls-1" cx="448.05" cy="745.92" r="14.57"/>
    <path class="cls-1" d="M289.95,745.92c0-8.04,6.52-14.57,14.57-14.57s14.57,6.52,14.57,14.57-6.52,14.57-14.57,14.57-14.57-6.52-14.57-14.57Z"/>
    <circle class="cls-1" cx="878.67" cy="574.7" r="14.57"/>
    <circle class="cls-1" cx="735.13" cy="574.7" r="14.57"/>
    <circle class="cls-1" cx="591.59" cy="574.7" r="14.57"/>
    <circle class="cls-1" cx="448.05" cy="574.7" r="14.57"/>
    <path class="cls-1" d="M289.95,574.7c0-8.04,6.52-14.57,14.57-14.57s14.57,6.52,14.57,14.57-6.52,14.57-14.57,14.57-14.57-6.52-14.57-14.57Z"/>
    <circle class="cls-1" cx="160.98" cy="574.7" r="14.57"/>
    <circle class="cls-1" cx="878.67" cy="403.47" r="14.57"/>
    <circle class="cls-1" cx="735.13" cy="403.47" r="14.57"/>
    <circle class="cls-1" cx="591.59" cy="403.47" r="14.57"/>
    <circle class="cls-1" cx="448.05" cy="403.47" r="14.57"/>
    <path class="cls-1" d="M289.95,403.47c0-8.04,6.52-14.57,14.57-14.57s14.57,6.52,14.57,14.57-6.52,14.57-14.57,14.57-14.57-6.52-14.57-14.57Z"/>
    <circle class="cls-1" cx="160.98" cy="403.47" r="14.57"/>
    <path class="cls-1" d="M792.33,917.15c0-8.04,6.52-14.57,14.57-14.57s14.57,6.52,14.57,14.57-6.52,14.57-14.57,14.57-14.57-6.52-14.57-14.57Z"/>
    <path class="cls-1" d="M648.8,917.15c0-8.04,6.52-14.57,14.57-14.57s14.57,6.52,14.57,14.57-6.52,14.57-14.57,14.57-14.57-6.52-14.57-14.57Z"/>
    <path class="cls-1" d="M505.26,917.15c0-8.04,6.52-14.57,14.57-14.57s14.57,6.52,14.57,14.57-6.52,14.57-14.57,14.57-14.57-6.52-14.57-14.57Z"/>
    <circle class="cls-1" cx="806.9" cy="745.92" r="14.57"/>
    <circle class="cls-1" cx="663.36" cy="745.92" r="14.57"/>
    <circle class="cls-1" cx="519.82" cy="745.92" r="14.57"/>
    <circle class="cls-1" cx="376.28" cy="745.92" r="14.57"/>
    <circle class="cls-1" cx="232.74" cy="745.92" r="14.57"/>
    <circle class="cls-1" cx="806.9" cy="574.7" r="14.57"/>
    <circle class="cls-1" cx="663.36" cy="574.7" r="14.57"/>
    <circle class="cls-1" cx="519.82" cy="574.7" r="14.57"/>
    <circle class="cls-1" cx="376.28" cy="574.7" r="14.57"/>
    <circle class="cls-1" cx="232.74" cy="574.7" r="14.57"/>
    <circle class="cls-1" cx="89.21" cy="574.7" r="14.57"/>
    <circle class="cls-1" cx="806.9" cy="403.47" r="14.57"/>
    <circle class="cls-1" cx="663.36" cy="403.47" r="14.57"/>
    <circle class="cls-1" cx="519.82" cy="403.47" r="14.57"/>
    <circle class="cls-1" cx="376.28" cy="403.47" r="14.57"/>
    <circle class="cls-1" cx="232.74" cy="403.47" r="14.57"/>
    <circle class="cls-1" cx="89.21" cy="403.47" r="14.57"/>
  </g>
  <g>
    <polygon class="cls-4" points="534.56 902.59 606.29 988.4 503.47 1001.46 534.56 902.59"/>
    <polygon class="cls-4" points="427.74 991.86 499.46 1077.68 396.64 1090.73 427.74 991.86"/>
    <polygon class="cls-4" points="320.92 1081.14 392.64 1166.96 289.82 1180.01 320.92 1081.14"/>
  </g>
  <rect class="cls-3" x="138.9" y="916.67" width="37.02" height="37.02" transform="translate(707.38 162.6) rotate(45)"/>
  <g>
    <path class="cls-5" d="M846.22,1049.37l-28.41,28.41c-26.84-24.58-68.42-23.96-94.32,1.93-25.88,25.88-26.51,67.47-1.93,94.32l-28.41,28.41c-40.31-42.6-39.71-109.67,1.85-151.23s108.63-42.16,151.23-1.85Z"/>
    <path class="cls-1" d="M776.63,1024.18c-60.01,0-108.7,48.66-108.7,108.7s48.68,108.7,108.7,108.7,108.7-48.68,108.7-108.7-48.66-108.7-108.7-108.7Zm0,177.09c-37.76,0-68.39-30.63-68.39-68.39s30.63-68.39,68.39-68.39,68.39,30.6,68.39,68.39-30.6,68.39-68.39,68.39Z"/>
  </g>
</svg>