<?xml version="1.0" encoding="utf-8"?>
<!-- Generator: Adobe Illustrator 26.4.1, SVG Export Plug-In . SVG Version: 6.00 Build 0)  -->
<svg version="1.1" id="Capa_1" xmlns="http://www.w3.org/2000/svg" xmlns:xlink="http://www.w3.org/1999/xlink" x="0px" y="0px"
	 viewBox="0 0 140 140" style="enable-background:new 0 0 140 140;" xml:space="preserve">
<style type="text/css">
	.st0{fill:#51B690;}
	.st1{enable-background:new    ;}
	.st2{fill:#FFFFFF;}
</style>
<circle class="st0" cx="70" cy="70" r="70"/>
<g>
	<g class="st1">
		<path class="st2" d="M32.4,36.1h9.1v64.9h-9.1V36.1z M37.1,67.1h20.7c2,0,3.7-0.5,5.2-1.4c1.5-0.9,2.6-2.2,3.5-3.9
			c0.8-1.7,1.2-3.6,1.2-5.8c0-2.2-0.4-4.2-1.2-5.9c-0.8-1.7-2-3-3.5-3.9c-1.5-0.9-3.2-1.4-5.2-1.4H37.1v-8.7h20.4
			c3.9,0,7.3,0.8,10.2,2.5c2.9,1.6,5.2,4,6.8,7S77,52,77,56s-0.8,7.4-2.4,10.4c-1.6,3-3.9,5.3-6.8,6.9c-2.9,1.6-6.3,2.5-10.2,2.5
			H37.1V67.1z"/>
		<path class="st2" d="M88.3,54.6h9.1v46.3h-9.1V54.6z M110.8,63.4c-1.2-0.5-2.6-0.8-4.2-0.8c-2.9,0-5.1,0.8-6.7,2.4
			s-2.4,3.8-2.4,6.6l-0.9-8.9c1.4-2.8,3.3-4.9,5.5-6.4c2.3-1.5,4.8-2.3,7.5-2.3c2.1,0,4,0.3,5.7,0.9c1.7,0.6,3.2,1.5,4.5,2.7l-5.9,8
			C113,64.6,112,63.9,110.8,63.4z"/>
	</g>
</g>
</svg>
